<svg height="28" viewBox="0 0 139 28" width="139" xmlns="http://www.w3.org/2000/svg" xmlns:xlink="http://www.w3.org/1999/xlink"><filter id="a"><feColorMatrix in="SourceGraphic" type="matrix" values="0 0 0 0 0.254902 0 0 0 0 0.627451 0 0 0 0 0.815686 0 0 0 1.000000 0"/></filter><g fill="none" fill-rule="evenodd" filter="url(#a)" transform="translate(0 -24)"><g fill="#fffffe" transform="translate(1 24)"><g><path d="m1.91222084 21.7777778c.46479317-1.0566128 1.11659093-2.8586083 1.2748139-3.7333334h3.18703474c.14611116-.291781.38226977-.3925444.63740695-.6222222.07485511-.122685.15546392-.3619208 0-.6222222.07044682-.6954053.12334635-2.9146724 1.27481389-3.7333333.14016261-.1475549.26926265-.4436633 0-.6222223.20565726-.4186031.01861964-.6757661 0-.6222222-.31200241-.2068526-1.51672619-.7904148-2.54962779-1.86666664h.63740695c1.8426746.89697954 4.92785062 1.46385084 7.64888342 1.24444444h7.6488833v-1.24444444h-7.6488833v-7.46666667c.0593413-.42378636.2608633-.62222222.6374069-.62222222h8.2862903c.4371445 0 .637407.19843586.637407.62222222v23.02222221c0 .4219318-.2002625.6222222-.637407.6222222h-8.2862903c-.3765436 0-.5780656-.2002904-.6374069-.6222222v-7.4666667c1.5310817-.7467617 3.3006969-.6670165 5.7366625 0 .7474524.1693814 1.4376653.3505083 1.9122208.6222223v-1.8666667l-1.2748139-.6222222c-1.6979848-.2172191-3.0758915-.4206004-4.4618486-.6222222-2.6066978.2016218-3.9575251 1.3094009-5.0992556 2.4888888-.88734422.4815625-1.48876148.9748703-2.54962778 1.2444445h-3.18703474c-.68938827-.2695742-1.02378886-.0352838-1.27481389.6222222.12570353-.2890706-.49271715 1.5215794-.63740695 2.4888889-.37800792.3061419-.81757781.1596332-.63740695 0-.5152012.0335244-.74380274-.156257-.63740695-.6222222zm23.58405706-10.5777778c1.8735244-.0755118 2.8538788-.6616523 3.8244417-1.86666667v-.62222222c.1797698-.41127399.4595126-.90977918.637407-1.24444444h.6374069v1.86666666c-.2075192.33310654.0609336.68364777.6374069.62222223-.1806936.16811204 2.1017822.77266864 3.8244417 1.24444444v1.8666667c.0172657.2741057-.1131973.378887 0 .6222222-.436846.0151255-1.0847705.0773592-1.9122208 0-.5041508-.2414301-1.7880826-.5322777-1.9122209-.6222222-.1618768.0251706-.420294-.0078514-.6374069 0-1.3622424-.0078514-2.1086415.8551658-2.5496278 1.8666666-.1348073.8040742.2948426 2.220845 1.9122209 3.1111111.8934078.1734233 3.6544572.9589658 5.7366625 1.2444445.3482959.4054432.8682663.5546772 1.2748139.6222222.3222891.1496382.5650256.34523.6374069.6222222.0279749.1434033-.0303571.3409002 0 .6222223-.2680758-.0527082-.4104561 0-.6374069 0-.0433837 0-.1550299-.0190512 0 0-4.8667525-1.4485228-7.9081719-2.3674234-11.4733251-3.1111112zm-24.221464 13.0666667c.4800287.0675742.78822944.121942 1.27481389 0 .79716076.121942 1.60777964-.42361 1.91222085-1.2444445.2813949-.6027248.60169443-1.4982299.63740694-1.8666666v-.6222223h3.18703474c1.64924413.2776295 2.68273548-.5703819 3.82444168-1.2444444-.1336861-.1527018-.0349854-.2339409 0-.6222222v6.8444444c.199349 1.5115198 1.1952704 2.4888889 2.5496278 2.4888889h8.2862903c1.5112521 0 2.5090838-.9773691 2.5496278-2.4888889v-6.2222222.6222222c3.487845.6448859 6.6806518 1.5803856 10.8359181 2.4888889.9198574.5831719 1.8329976.4000714 2.5496278 0 .5142624-.7404008.7645163-1.5690399.637407-2.4888889-.2727875-.7161818-.9694231-1.3742187-1.9122209-1.8666667-.456841.0868773-6.0891458-1.5654014-7.0114764-1.8666666-.3340332-.0774341-.5276138-.2174153-.6374069-.6222222-.0525854.075476-.0532222-.0932514 0 0 .1626457-.634429.4963176-.7575375 1.2748138-.6222223-.2397817-.0140814 1.071345.2733801 1.9122209.6222223.2753966-.0895019.633266-.0495073 1.2748139 0 .2550361-.0495073 1.0440045-.1519936 1.9122208-.6222223.1499923-.3184157.6167509-.8883393.637407-1.8666666v-2.4888889c-.0206561-.2897807-.2830088-.63098496-.637407-.62222224-.8707634-.35871585-2.2347427-.72554172-3.8244417-1.24444445v-1.86666667c-.3168155-.7146404-.7141652-1.10458817-1.2748139-1.24444444-2.2895713.13985627-3.1454014 1.79026023-3.8244416 2.48888889v.62222222c-.1844313.32142917-.4327749.78574199-1.9122209.62222222v-6.84444444c-.040544-1.51026995-1.0383757-2.48888889-2.5496278-2.48888889h-8.2862903c-1.3543574 0-2.3502788.97861894-2.5496278 2.48888889v6.84444444c-2.13635407.13664837-4.08935336-.25267449-5.09925557-.62222222-1.34872491-.67968675-1.75053207-1.09213151-1.91222085-1.24444444-.63301063-.66945201-.97113995-.80193427-1.27481389-.62222223-.45472912.08150298-.7024359.50644607-.63740695.62222223.5284485 2.78758503 2.21463765 4.61109073 3.18703474 4.97777773-.88070101 1.2874665-1.06027251 2.6135389-1.2748139 3.7333334h-2.54962779c-.24588222-.1161789-.58337476.1212893-.63740695.6222222-.3203935.597045-1.20806256 3.0735884-1.91222084 4.3555556-.35798806 1.5376551.42907002 2.6743779 1.2748139 3.1111111z"/><path d="m16.5725806 23.0222222h3.1870348v1.2444445h-3.1870348z"/></g><g transform="translate(46.544872 3.5)"><path d="m57.6699744 1.246h-.8615193c-.5339487 0-.9669038.431375-.9669038.965125v1.315125c0 .532875.4329551.96425.9669038.96425h.8615193c.5330705 0 .9669038-.431375.9669038-.96425v-1.315125c0-.53375-.4338333-.965125-.9669038-.965125"/><path d="m48.80625 11.781 4.2487564-4.1475c.2520449-.24675.3284487-.616.1940833-.94325-.1334871-.328125-.4487628-.54075-.8026794-.54075h-.9484616c-.235359 0-.4575449.0945-.6226474.26425l-6.13075 6.286v-11.185125c0-.478625-.3890449-.86625-.8676667-.86625h-.7122243c-.4795 0-.8667885.387625-.8667885.86625v17.90075c0 .480375.3872885.868.8667885.868h.7122243c.4786218 0 .8676667-.387625.8676667-.868v-3.54725l2.3816923-2.387 4.5008013 6.432125c.1633461.231.4285641.370125.7122243.370125h.8659103c.3266923 0 .6226474-.179375.7710641-.469.1492949-.289625.1255833-.63525-.0632308-.8995z"/><path d="m23.0792308 18.066125c-2.6513013 0-4.5043141-1.9915-4.5043141-4.8405 0-2.85075 1.8530128-4.843125 4.5043141-4.843125 2.6311025 0 4.3980513 1.946875 4.3980513 4.843125s-1.7669488 4.8405-4.3980513 4.8405zm5.9551089-11.897375h-.6990512c-.5339488 0-.9669039.429625-.9669039.961625v.665875l-.1677372-.1645c-1.104782-1.099875-2.6249551-1.68-4.3919038-1.68-3.9800257 0-6.8675641 3.059875-6.8675641 7.273875 0 4.216625 2.8875384 7.273 6.8675641 7.273 1.7739743 0 3.2932692-.573125 4.3919038-1.656375l.1677372-.165375v.644c0 .531125.4329551.9625.9669039.9625h.6990512c.5321924 0 .9669039-.431375.9669039-.9625v-12.1905c0-.532-.4347115-.961625-.9669039-.961625z"/><path d="m39.6333974 5.9815c-2.0348012.200375-3.2361859 1.336125-3.8895705 2.25225l-.1765192.249375v-1.35275c0-.532-.4347115-.961625-.9686603-.961625h-.6972948c-.5330705 0-.9677821.429625-.9677821.961625v12.1905c0 .531125.4347116.9625.9677821.9625h.6972948c.5339488 0 .9686603-.431375.9686603-.9625v-5.285875c0-1.273125.37675-2.561125 1.0371602-3.53325.0219552-.035.0377629-.07175.0544488-.11025l.0491795-.072625c.0351282-.0315.0711346-.063875.1036282-.104125.5295577-.679875 1.4797756-1.51725 2.9902884-1.628375.5014551-.035875.894891-.4585.894891-.959875v-.686c0-.270375-.1168012-.532-.317032-.714875-.2028654-.182-.4759872-.272125-.7464744-.244125"/><path d="m57.5900577 6.16875h-.6999295c-.5313141 0-.9651474.429625-.9651474.961625v12.1905c0 .531125.4338333.9625.9651474.9625h.6999295c.5321923 0 .9669038-.431375.9669038-.9625v-12.1905c0-.532-.4347115-.961625-.9669038-.961625"/><path d="m89.0763462 6.16875h-.6999295c-.5330705 0-.9677821.429625-.9677821.961625v7.121625c0 .7385-.1870577 1.442-.5400961 2.034375-.0605962.1015-.1036282.214375-.123827.336l-.0096602.049-.0447885.021875c-.1132884.056-.209891.128625-.2862949.21175-.7060769.749875-1.6958141 1.161125-2.7953269 1.161125-2.0927628 0-3.5014038-1.519875-3.5014038-3.78525v-7.1505c0-.532-.4329551-.961625-.9651475-.961625h-.6999294c-.5321924 0-.9651475.429625-.9651475.961625v7.202125c0 4.050375 2.8796346 6.166125 5.7258975 6.166125 1.6378525 0 2.920032-.5215 4.0397435-1.637125l.1659808-.168v.627375c0 .531125.4347116.9625.9677821.9625h.6999295c.5321923 0 .9642692-.431375.9642692-.9625v-12.1905c0-.532-.4320769-.961625-.9642692-.961625"/><path d="m68.6800321 5.95175c-.4171475 0-.7772116.023625-1.1030257.077875-.8097051.126-1.1838205.590625-1.1153205 1.37725.0685.8015.4715962 1.117375 1.2830577 1.022.2177949-.027125.4338333-.046375.6630449-.046375 2.6548141 0 4.5078269 1.992375 4.5078269 4.843125 0 2.849-1.8530128 4.8405-4.5078269 4.8405-2.1296475 0-4.2882757-1.26175-4.2882757-3.675v-12.667375c0-.53375-.4347115-.96425-.9660256-.96425h-.7016859c-.5313141 0-.9642692.4305-.9642692.96425v17.597125c0 .531125.4329551.9625.9642692.9625h.7016859c.5313141 0 .9660256-.431375.9660256-.9625v-.644l.166859.165375c1.1161987 1.099 2.5950961 1.656375 4.3936603 1.656375 3.9782692 0 6.8666858-3.056375 6.8666858-7.273 0-4.214-2.8884166-7.273875-6.8666858-7.273875"/><path d="m7.20479487 5.95175c-.41626923 0-.77545513.023625-1.10126923.077875-.81936538.12775-1.18557692.57925-1.11795513 1.37725.07025641.8015.48213462 1.11825 1.28569231 1.022.21779487-.027125.43207692-.046375.66216667-.046375 2.65393589 0 4.50694871 1.992375 4.50694871 4.843125 0 2.849-1.85301282 4.8405-4.50694871 4.8405-2.13140385 0-4.28915385-1.26175-4.28915385-3.675v-12.667375c0-.53375-.43295513-.96425-.96690385-.96425h-.69817307c-.53394872 0-.96602564.4305-.96602564.96425v17.597125c0 .531125.43207692.9625.96602564.9625h.69817307c.53394872 0 .96690385-.431375.96690385-.9625v-.644l.16773718.165375c1.11532051 1.099 2.59333974 1.656375 4.39278205 1.656375 3.98002563 0 6.86668593-3.056375 6.86668593-7.273 0-4.214-2.8866603-7.273875-6.86668593-7.273875"/></g></g></g></svg>