<svg height="33" viewBox="0 0 36 33" width="36" xmlns="http://www.w3.org/2000/svg"><g fill="#2882de" fill-rule="evenodd" transform="translate(0 1)"><path d="m15.8897175.27195469c-1.4506645 0-2.5159678 1.05314521-2.7294912 2.68v7.37500081c-2.2882682.1471962-4.38223997-.2744269-5.46395511-.67250046-1.4446313-.73215616-1.87268939-1.1759296-2.04587574-1.34-.67802331-.72113075-1.04196366-.86358528-1.36723158-.67000038-.48706439.08779456-.75078314.54528614-.68113.67000038.5660258 3.00277116 2.37156418 4.96750716 3.41310744 5.36249986-.94332666 1.3868518-1.13494868 2.8162637-1.36474586 4.0224998h-2.73197731c-.26336657-.1251456-.62574154.1303975-.68361585.6700007-.3431764.6431334-1.29413139 3.3090713-2.04836158 4.6899993-.38344412 1.6563533.46134786 2.8820544 1.36723157 3.3525005.51416304.0727936 3.79096055-.6700006 3.79096055-.6699994 0 0 .49154887-2.1375001 1.44180778-2.1375001 1.80433307 0 5.52046199-2.0483367 6.37378569-2.5550003-.1431928-.1644903 0 6.7024998 0 6.7024998.2135234 1.628201 1.2788267 2.6824998 2.7294912 2.6824998h8.8770617c1.6187157 0 2.6860656-1.0542988 2.7294925-2.6824998v-4.3775002c-.1930395.0245632-.3854528.0574976-.5792089.0574976-.4969155 0-.9903716-.1010432-1.4691527-.2624998v4.5824998c0 .4545024-.2129011.6700007-.6811309.6700007h-8.8770617c-.4033186 0-.6175688-.2154983-.6811296-.6700007v-8.0424998c1.6399557-.804407 3.533415-.7185062 6.142599 0l-2.0433901-2.1174976c-.0949231-.096768-.1650934-.2089395-.2535597-.3100006-.5747185-.0829312-1.2388389-.1707968-1.7972876-.2524992-2.7920567.2171865-4.2410373 1.4094617-5.4639551 2.68-.9504424.5187366-1.5931878 1.0496166-2.72949151 1.34h-3.41310744c-.7384098-.2903847-1.09835646-.0382592-1.36723158.6699993.13464222-.3113856-.52615149 1.6405197-.68113 2.6824999-.40488773.3297753-.87659834.1719552-.68361573 0-.55183672.0361088-.79757736-.168064-.68361585-.6699994.49784398-1.1381773 1.19775751-3.0802496 1.36723158-4.0224998h3.41310744c.15650099-.3143053.40785009-.4225933.68112988-.6700007.08017804-.1321561.1665187-.3896038 0-.6699993.07545607-.7490868.13388454-3.1406426 1.3672317-4.0224999.15012939-.1589453.28840956-.4776576 0-.6700006.2202812-.4509171.01994428-.7276762 0-.6699994-.33418863-.2228198-1.62562735-.8506675-2.73197743-2.0100006h.68361585c1.97370506.9662221 5.27892409 1.576343 8.19344659 1.34h2.0707343c.011964-.4502451.0660058-.8964378.1615818-1.34h-2.2323161v-8.04500021c.063562-.45650048.277811-.67.6811296-.67h8.8770617c.4682298 0 .6811309.21349952.6811309.67v2.57750003c.5574127.110304 1.1102867.27555405 1.643163.51499994.1338953-.05314176.2701833-.1000448.4051986-.15v-2.94249997c-.0434269-1.62685479-1.1107768-2.68-2.7294925-2.68z"/><path d="m17.9384826 25.0794163h4.6864285v1.3405082h-4.6864285z"/><g fill-rule="nonzero" transform="translate(19.21258 6.68)"><path d="m10.868248.96750003c-1.03075405-.07649152-2.06126241.2673737-2.96813532.87999949-2.11287694-1.49960819-5.02479022-1.04708954-6.5676833 1.08249984-1.42052404 1.96069632-1.22008975 4.69467776.46983098 6.41750016l4.28316337 4.43500028c.95666488.9809204 2.52604682.9809216 3.4827117 0l4.28067767-4.43249916.0049638-.004992c1.8854536-1.89668352 1.9197712-5.00360448.0745715-6.94249984-.0054729-.00576-.0128423-.0128-.0198934-.0200064v-.00256c-.8409168-.85436928-1.9274422-1.3298656-3.040207-1.41244237zm-5.63299408 2.12249933c.69131941 0 1.38042165.26903936 1.91412525.81000064v-.00256c.39750338.41145088 1.0633496.4156864 1.46417999.007552 1.07206298-1.08480384 2.76888594-1.08635392 3.83570634-.004992 1.045592 1.09279616 1.0412137 2.83574784.0099276 3.93750016l-.0124731.012544-4.28316464 4.40000004h-.00254553c-.15793019.1634726-.39517422.1645952-.55435045.00256l-4.28564908-4.40000004-.00254553-.00256c-1.04519738-1.09953152-1.04430899-2.85396864.00254553-3.9524992.53335868-.53926912 1.22388642-.8075456 1.91412398-.8075456z"/><path d="m8.23658299 5.60262144c-.06334568-.01024-.46103488-.18536064-.88641825.114368-.10336152.13290496-.17405107.35071232-.23483849.69282816-.00980032.1006976-.04256137.19778432-.06384206.29667712-.39708591.0214656-1.03367119.3422848-1.16649602.47862016-.12988092.13331328-.21129992.31573248-.21129992.52499968s.081419.38918656.21129992.52249984c.13282483.1363328.33802182.24674048.73084777.33250048l.49966086.1100032v.51500032c0 .2092672.08141899.39168768.21129864.52499968.13282483.13633536.30993437.21750016.51209071.21750016.20215635 0 .37678017-.0811648.509605-.21750016.12988092-.13331072.23396537-.33345152.30576224-.73750016l.09446486-.52749952h.53197772c.20215635 0 .37926461-.0811648.51208944-.21750016.12988092-.13331328.21129989-.31323264.21129989-.52249984s-.08141897-.3916864-.21129989-.52499968c-.13286938-.13633024-.33806636-.24673792-.73089232-.33249792l-.50214657-.1074944v-.51750016c0-.20926592-.081419-.38918912-.21129864-.52249984-.15657597-.1607168-.03586662-.0902144-.11186361-.1025024z"/></g></g></svg>