<svg height="31" viewBox="0 0 271 31" width="271" xmlns="http://www.w3.org/2000/svg"><g fill="none" fill-rule="evenodd"><g fill="#2882de"><g transform="translate(47.728814)"><path d="m69.3292978 16.83 6.0353602-5.925c.3580299-.3525.4665616-.88.2756955-1.3475-.1896186-.46875-.6374678-.7725-1.1402066-.7725h-1.34729c-.3343275 0-.6499426.135-.8844709.3775l-8.7087328 8.98v-15.97875c0-.68375-.5526384-1.2375-1.2325209-1.2375h-1.011715c-.6811299 0-1.2312733.55375-1.2312733 1.2375v25.5725c0 .68625.5501434 1.24 1.2312733 1.24h1.011715c.6798825 0 1.2325209-.55375 1.2325209-1.24v-5.0675l3.3831948-3.41 6.3933901 9.18875c.2320333.33.6087755.52875 1.011715.52875h1.2300258c.4640666 0 .884471-.25625 1.0952969-.67.2120734-.41375.1783912-.9075-.0898193-1.285z"/><path d="m32.7840566 25.80875c-3.7661745 0-6.39838-2.845-6.39838-6.915 0-4.0725 2.6322055-6.91875 6.39838-6.91875 3.7374823 0 6.2474336 2.78125 6.2474336 6.91875s-2.5099513 6.915-6.2474336 6.915zm8.4592347-16.99625h-.9930026c-.7584744 0-1.3734873.61375-1.3734873 1.37375v.95125l-.2382707-.235c-1.5693434-1.57125-3.7287499-2.4-6.2387012-2.4-5.6536281 0-9.7553776 4.37125-9.7553776 10.39125 0 6.02375 4.1017495 10.39 9.7553776 10.39 2.5199313 0 4.6780902-.81875 6.2387012-2.36625l.2382707-.23625v.92c0 .75875.6150129 1.375 1.3734873 1.375h.9930026c.7559794 0 1.3734873-.61625 1.3734873-1.375v-17.415c0-.76-.6175079-1.37375-1.3734873-1.37375z"/><path d="m56.2992571 8.545c-2.8904361.28625-4.5970034 1.90875-5.5251365 3.2175l-.2507457.35625v-1.9325c0-.76-.6175079-1.37375-1.3759823-1.37375h-.9905076c-.7572269 0-1.3747348.61375-1.3747348 1.37375v17.415c0 .75875.6175079 1.375 1.3747348 1.375h.9905076c.7584744 0 1.3759823-.61625 1.3759823-1.375v-7.55125c0-1.81875.5351736-3.65875 1.4732866-5.0475.0311873-.05.0536421-.1025.0773444-.1575l.0698595-.10375c.0498996-.045.1010467-.09125.1472039-.14875.7522369-.97125 2.1020219-2.1675 4.247706-2.32625.7123172-.05125 1.271193-.655 1.271193-1.37125v-.98c0-.38625-.1659162-.76-.4503441-1.02125-.2881704-.26-.67614-.38875-1.0603671-.34875"/><path d="m81.8067002 8.8125h-.9942501c-.7547319 0-1.3709923.61375-1.3709923 1.37375v17.415c0 .75875.6162604 1.375 1.3709923 1.375h.9942501c.7559794 0 1.3734873-.61625 1.3734873-1.375v-17.415c0-.76-.6175079-1.37375-1.3734873-1.37375"/><path d="m126.532986 8.8125h-.99425c-.757227 0-1.374735.61375-1.374735 1.37375v10.17375c0 1.055-.265716 2.06-.767207 2.90625-.086077.145-.147204.30625-.175896.48l-.013723.07-.063622.03125c-.160926.08-.29815.18375-.406682.3025-1.002982 1.07125-2.408904 1.65875-3.970763 1.65875-2.97277 0-4.973745-2.17125-4.973745-5.4075v-10.215c0-.76-.615013-1.37375-1.370993-1.37375h-.99425c-.755979 0-1.370992.61375-1.370992 1.37375v10.28875c0 5.78625 4.090522 8.80875 8.13364 8.80875 2.32657 0 4.147906-.745 5.738457-2.33875l.235776-.24v.89625c0 .75875.617508 1.375 1.374735 1.375h.99425c.755979 0 1.369744-.61625 1.369744-1.375v-17.415c0-.76-.613765-1.37375-1.369744-1.37375"/><path d="m97.5600132 8.5025c-.5925581 0-1.1040293.03375-1.5668483.11125-1.1501865.18-1.6816175.84375-1.5843133 1.9675.0973043 1.145.6699026 1.59625 1.822584 1.46.3093777-.03875.6162604-.06625.9418555-.06625 3.7711649 0 6.4033699 2.84625 6.4033699 6.91875 0 4.07-2.632205 6.915-6.4033699 6.915-3.025165 0-6.0914973-1.8025-6.0914973-5.25v-18.09625c0-.7625-.6175079-1.3775-1.3722398-1.3775h-.9967451c-.7547319 0-1.3697448.615-1.3697448 1.3775v25.13875c0 .75875.6150129 1.375 1.3697448 1.375h.9967451c.7547319 0 1.3722398-.61625 1.3722398-1.375v-.92l.2370233.23625c1.5855607 1.57 3.6863351 2.36625 6.2411961 2.36625 5.6511328 0 9.7541298-4.36625 9.7541298-10.39 0-6.02-4.102997-10.39125-9.7541298-10.39125"/><path d="m10.234414 8.5025c-.59131059 0-1.1015343.03375-1.56435336.11125-1.16390886.1825-1.6841125.8275-1.58805571 1.9675.09979925 1.145.68487241 1.5975 1.82632644 1.46.3093777-.03875.61376544-.06625.94060801-.06625 3.76991702 0 6.40212252 2.84625 6.40212252 6.91875 0 4.07-2.6322055 6.915-6.40212252 6.915-3.02766002 0-6.09274476-1.8025-6.09274476-5.25v-18.09625c0-.7625-.61501294-1.3775-1.37348731-1.3775h-.99175514c-.75847437 0-1.37223981.615-1.37223981 1.3775v25.13875c0 .75875.61376544 1.375 1.37223981 1.375h.99175514c.75847437 0 1.37348731-.61625 1.37348731-1.375v-.92l.23827073.23625c1.58431323 1.57 3.68384015 2.36625 6.23994865 2.36625 5.6536281 0 9.7541301-4.36625 9.7541301-10.39 0-6.02-4.100502-10.39125-9.7541301-10.39125"/><path d="m81.9202218 1.78h-1.2237884c-.7584743 0-1.3734873.61625-1.3734873 1.37875v1.87875c0 .76125.615013 1.3775 1.3734873 1.3775h1.2237884c.7572269 0 1.3734874-.61625 1.3734874-1.3775v-1.87875c0-.7625-.6162605-1.37875-1.3734874-1.37875"/></g><g><path d="m15.8897175.27195469c-1.4506645 0-2.5159678 1.05314521-2.7294912 2.68v7.37500081c-2.2882682.1471962-4.38223997-.2744269-5.46395511-.67250046-1.4446313-.73215616-1.87268939-1.1759296-2.04587574-1.34-.67802331-.72113075-1.04196366-.86358528-1.36723158-.67000038-.48706439.08779456-.75078314.54528614-.68113.67000038.5660258 3.00277116 2.37156418 4.96750716 3.41310744 5.36249986-.94332666 1.3868518-1.13494868 2.8162637-1.36474586 4.0224998h-2.73197731c-.26336657-.1251456-.62574154.1303975-.68361585.6700007-.3431764.6431334-1.29413139 3.3090713-2.04836158 4.6899993-.38344412 1.6563533.46134786 2.8820544 1.36723157 3.3525005.51416304.0727936 3.79096055-.6700006 3.79096055-.6699994 0 0 .49154887-2.1375001 1.44180778-2.1375001 1.80433307 0 5.52046199-2.0483367 6.37378569-2.5550003-.1431928-.1644903 0 6.7024998 0 6.7024998.2135234 1.628201 1.2788267 2.6824998 2.7294912 2.6824998h8.8770617c1.6187157 0 2.6860656-1.0542988 2.7294925-2.6824998v-4.3775002c-.1930395.0245632-.3854528.0574976-.5792089.0574976-.4969155 0-.9903716-.1010432-1.4691527-.2624998v4.5824998c0 .4545024-.2129011.6700007-.6811309.6700007h-8.8770617c-.4033186 0-.6175688-.2154983-.6811296-.6700007v-8.0424998c1.6399557-.804407 3.533415-.7185062 6.142599 0l-2.0433901-2.1174976c-.0949231-.096768-.1650934-.2089395-.2535597-.3100006-.5747185-.0829312-1.2388389-.1707968-1.7972876-.2524992-2.7920567.2171865-4.2410373 1.4094617-5.4639551 2.68-.9504424.5187366-1.5931878 1.0496166-2.72949151 1.34h-3.41310744c-.7384098-.2903847-1.09835646-.0382592-1.36723158.6699993.13464222-.3113856-.52615149 1.6405197-.68113 2.6824999-.40488773.3297753-.87659834.1719552-.68361573 0-.55183672.0361088-.79757736-.168064-.68361585-.6699994.49784398-1.1381773 1.19775751-3.0802496 1.36723158-4.0224998h3.41310744c.15650099-.3143053.40785009-.4225933.68112988-.6700007.08017804-.1321561.1665187-.3896038 0-.6699993.07545607-.7490868.13388454-3.1406426 1.3672317-4.0224999.15012939-.1589453.28840956-.4776576 0-.6700006.2202812-.4509171.01994428-.7276762 0-.6699994-.33418863-.2228198-1.62562735-.8506675-2.73197743-2.0100006h.68361585c1.97370506.9662221 5.27892409 1.576343 8.19344659 1.34h2.0707343c.011964-.4502451.0660058-.8964378.1615818-1.34h-2.2323161v-8.04500021c.063562-.45650048.277811-.67.6811296-.67h8.8770617c.4682298 0 .6811309.21349952.6811309.67v2.57750003c.5574127.110304 1.1102867.27555405 1.643163.51499994.1338953-.05314176.2701833-.1000448.4051986-.15v-2.94249997c-.0434269-1.62685479-1.1107768-2.68-2.7294925-2.68z"/><path d="m17.9384826 25.0794163h4.6864285v1.3405082h-4.6864285z"/><g fill-rule="nonzero" transform="translate(19.21258 6.68)"><path d="m10.868248.96750003c-1.03075405-.07649152-2.06126241.2673737-2.96813532.87999949-2.11287694-1.49960819-5.02479022-1.04708954-6.5676833 1.08249984-1.42052404 1.96069632-1.22008975 4.69467776.46983098 6.41750016l4.28316337 4.43500028c.95666488.9809204 2.52604682.9809216 3.4827117 0l4.28067767-4.43249916.0049638-.004992c1.8854536-1.89668352 1.9197712-5.00360448.0745715-6.94249984-.0054729-.00576-.0128423-.0128-.0198934-.0200064v-.00256c-.8409168-.85436928-1.9274422-1.3298656-3.040207-1.41244237zm-5.63299408 2.12249933c.69131941 0 1.38042165.26903936 1.91412525.81000064v-.00256c.39750338.41145088 1.0633496.4156864 1.46417999.007552 1.07206298-1.08480384 2.76888594-1.08635392 3.83570634-.004992 1.045592 1.09279616 1.0412137 2.83574784.0099276 3.93750016l-.0124731.012544-4.28316464 4.40000004h-.00254553c-.15793019.1634726-.39517422.1645952-.55435045.00256l-4.28564908-4.40000004-.00254553-.00256c-1.04519738-1.09953152-1.04430899-2.85396864.00254553-3.9524992.53335868-.53926912 1.22388642-.8075456 1.91412398-.8075456z"/><path d="m8.23658299 5.60262144c-.06334568-.01024-.46103488-.18536064-.88641825.114368-.10336152.13290496-.17405107.35071232-.23483849.69282816-.00980032.1006976-.04256137.19778432-.06384206.29667712-.39708591.0214656-1.03367119.3422848-1.16649602.47862016-.12988092.13331328-.21129992.31573248-.21129992.52499968s.081419.38918656.21129992.52249984c.13282483.1363328.33802182.24674048.73084777.33250048l.49966086.1100032v.51500032c0 .2092672.08141899.39168768.21129864.52499968.13282483.13633536.30993437.21750016.51209071.21750016.20215635 0 .37678017-.0811648.509605-.21750016.12988092-.13331072.23396537-.33345152.30576224-.73750016l.09446486-.52749952h.53197772c.20215635 0 .37926461-.0811648.51208944-.21750016.12988092-.13331328.21129989-.31323264.21129989-.52249984s-.08141897-.3916864-.21129989-.52499968c-.13286938-.13633024-.33806636-.24673792-.73089232-.33249792l-.50214657-.1074944v-.51750016c0-.20926592-.081419-.38918912-.21129864-.52249984-.15657597-.1607168-.03586662-.0902144-.11186361-.1025024z"/></g></g></g><g transform="translate(188 7)"><rect height="23" opacity=".12" rx="6" stroke="#123c70" width="82" x=".5" y=".5"/><path d="m15.92 16.048c.192 0 .362-.064.51-.192s.222-.284.222-.468c0-.104-.024-.208-.072-.312l-3.324-7.116c-.072-.16-.182-.282-.33-.366s-.306-.126-.474-.126-.326.042-.474.126-.258.206-.33.366l-3.312 7.116c-.048.104-.072.208-.072.312 0 .184.076.34.228.468s.32.192.504.192c.136 0 .26-.034.372-.102s.2-.174.264-.318l.72-1.608h4.224l.72 1.608c.064.144.152.25.264.318s.232.102.36.102zm-1.872-3.228h-3.168l1.584-3.564zm6.6 3.288c.648 0 1.222-.106 1.722-.318s.888-.508 1.164-.888.414-.818.414-1.314c0-.456-.118-.836-.354-1.14s-.576-.554-1.02-.75-1.022-.374-1.734-.534c-.672-.152-1.148-.316-1.428-.492s-.42-.428-.42-.756c0-.392.158-.698.474-.918s.746-.33 1.29-.33c.448 0 .826.058 1.134.174s.626.294.954.534c.112.064.202.108.27.132s.142.036.222.036c.136 0 .254-.062.354-.186s.15-.27.15-.438c0-.128-.022-.234-.066-.318s-.118-.17-.222-.258c-.72-.608-1.652-.912-2.796-.912-.624 0-1.186.11-1.686.33s-.89.526-1.17.918-.42.836-.42 1.332c0 .48.112.876.336 1.188s.556.568.996.768 1.012.376 1.716.528c.68.152 1.166.31 1.458.474s.438.398.438.702c0 .392-.156.69-.468.894s-.76.306-1.344.306c-.456 0-.872-.056-1.248-.168s-.736-.292-1.08-.54c-.184-.112-.348-.168-.492-.168-.136 0-.254.062-.354.186s-.15.27-.15.438c0 .248.092.44.276.576.344.28.79.502 1.338.666s1.13.246 1.746.246zm7.656 0c.648 0 1.222-.106 1.722-.318s.888-.508 1.164-.888.414-.818.414-1.314c0-.456-.118-.836-.354-1.14s-.576-.554-1.02-.75-1.022-.374-1.734-.534c-.672-.152-1.148-.316-1.428-.492s-.42-.428-.42-.756c0-.392.158-.698.474-.918s.746-.33 1.29-.33c.448 0 .826.058 1.134.174s.626.294.954.534c.112.064.202.108.27.132s.142.036.222.036c.136 0 .254-.062.354-.186s.15-.27.15-.438c0-.128-.022-.234-.066-.318s-.118-.17-.222-.258c-.72-.608-1.652-.912-2.796-.912-.624 0-1.186.11-1.686.33s-.89.526-1.17.918-.42.836-.42 1.332c0 .48.112.876.336 1.188s.556.568.996.768 1.012.376 1.716.528c.68.152 1.166.31 1.458.474s.438.398.438.702c0 .392-.156.69-.468.894s-.76.306-1.344.306c-.456 0-.872-.056-1.248-.168s-.736-.292-1.08-.54c-.184-.112-.348-.168-.492-.168-.136 0-.254.062-.354.186s-.15.27-.15.438c0 .248.092.44.276.576.344.28.79.502 1.338.666s1.13.246 1.746.246zm5.496-.036c.24 0 .43-.072.57-.216s.21-.332.21-.564v-7.044c0-.232-.07-.418-.21-.558s-.33-.21-.57-.21c-.232 0-.418.07-.558.21s-.21.326-.21.558v7.044c0 .232.07.42.21.564s.326.216.558.216zm5.532.036c.648 0 1.222-.106 1.722-.318s.888-.508 1.164-.888.414-.818.414-1.314c0-.456-.118-.836-.354-1.14s-.576-.554-1.02-.75-1.022-.374-1.734-.534c-.672-.152-1.148-.316-1.428-.492s-.42-.428-.42-.756c0-.392.158-.698.474-.918s.746-.33 1.29-.33c.448 0 .826.058 1.134.174s.626.294.954.534c.112.064.202.108.27.132s.142.036.222.036c.136 0 .254-.062.354-.186s.15-.27.15-.438c0-.128-.022-.234-.066-.318s-.118-.17-.222-.258c-.72-.608-1.652-.912-2.796-.912-.624 0-1.186.11-1.686.33s-.89.526-1.17.918-.42.836-.42 1.332c0 .48.112.876.336 1.188s.556.568.996.768 1.012.376 1.716.528c.68.152 1.166.31 1.458.474s.438.398.438.702c0 .392-.156.69-.468.894s-.76.306-1.344.306c-.456 0-.872-.056-1.248-.168s-.736-.292-1.08-.54c-.184-.112-.348-.168-.492-.168-.136 0-.254.062-.354.186s-.15.27-.15.438c0 .248.092.44.276.576.344.28.79.502 1.338.666s1.13.246 1.746.246zm7.32-.048c.232 0 .418-.07.558-.21s.21-.326.21-.558v-6.48h2.184c.48 0 .72-.212.72-.636s-.24-.636-.72-.636h-5.916c-.48 0-.72.212-.72.636s.24.636.72.636h2.184v6.48c0 .232.07.418.21.558s.33.21.57.21zm10.548-.012c.192 0 .362-.064.51-.192s.222-.284.222-.468c0-.104-.024-.208-.072-.312l-3.324-7.116c-.072-.16-.182-.282-.33-.366s-.306-.126-.474-.126-.326.042-.474.126-.258.206-.33.366l-3.312 7.116c-.048.104-.072.208-.072.312 0 .184.076.34.228.468s.32.192.504.192c.136 0 .26-.034.372-.102s.2-.174.264-.318l.72-1.608h4.224l.72 1.608c.064.144.152.25.264.318s.232.102.36.102zm-1.872-3.228h-3.168l1.584-3.564zm10.176 3.252c.216 0 .392-.072.528-.216s.204-.332.204-.564v-7.044c0-.232-.066-.418-.198-.558s-.31-.21-.534-.21c-.216 0-.39.07-.522.21s-.198.326-.198.558v5.184l-4.368-5.676c-.136-.184-.328-.276-.576-.276-.224 0-.404.07-.54.21s-.204.326-.204.558v7.044c0 .232.064.42.192.564s.304.216.528.216.4-.072.528-.216.192-.332.192-.564v-5.196l4.38 5.7c.136.184.332.276.588.276zm5.328-.012c.232 0 .418-.07.558-.21s.21-.326.21-.558v-6.48h2.184c.48 0 .72-.212.72-.636s-.24-.636-.72-.636h-5.916c-.48 0-.72.212-.72.636s.24.636.72.636h2.184v6.48c0 .232.07.418.21.558s.33.21.57.21z" fill="#123c70" fill-rule="nonzero"/></g></g></svg>