<?xml version="1.0" encoding="UTF-8"?>
<svg width="139px" height="28px" viewBox="0 0 139 28" version="1.1" xmlns="http://www.w3.org/2000/svg" xmlns:xlink="http://www.w3.org/1999/xlink">
    <title>footer_logo</title>
    <defs>
        <filter id="filter-1">
            <feColorMatrix in="SourceGraphic" type="matrix" values="0 0 0 0 0.254902 0 0 0 0 0.627451 0 0 0 0 0.815686 0 0 0 1.000000 0"></feColorMatrix>
        </filter>
    </defs>
    <g id="Landing-Page" stroke="none" stroke-width="1" fill="none" fill-rule="evenodd">
        <g id="00---00-Landing-Spanish" transform="translate(-179.000000, -3004.000000)">
            <g id="Footer" transform="translate(0.000000, 2943.000000)">
                <g id="Logo" transform="translate(179.000000, 37.000000)">
                    <g filter="url(#filter-1)" id="footer_logo">
                        <g transform="translate(1.000000, 24.000000)">
                            <g id="Fill-93-+-Group-+-Fill-97-+-Fill-98" fill="#FFFFFE">
                                <path d="M1.91222084,21.7777778 C2.37701401,20.721165 3.02881177,18.9191695 3.18703474,18.0444444 L3.18703474,18.0444444 L6.37406948,18.0444444 C6.52018064,17.7526634 6.75633925,17.6519 7.01147643,17.4222222 C7.08633154,17.2995372 7.16694035,17.0603014 7.01147643,16.8 C7.08192325,16.1045947 7.13482278,13.8853276 8.28629032,13.0666667 C8.42645293,12.9191118 8.55555297,12.6230034 8.28629032,12.4444444 C8.49194758,12.0258413 8.30490996,11.7686783 8.28629032,11.8222222 C7.97428791,11.6153696 6.76956413,11.0318074 5.73666253,9.95555556 L6.37406948,9.95555556 C8.21674408,10.8525351 11.3019201,11.4194064 14.0229529,11.2 L21.6718362,11.2 L21.6718362,9.95555556 L14.0229529,9.95555556 L14.0229529,2.48888889 C14.0822942,2.06510253 14.2838162,1.86666667 14.6603598,1.86666667 L22.9466501,1.86666667 C23.3837946,1.86666667 23.5840571,2.06510253 23.5840571,2.48888889 L23.5840571,25.5111111 C23.5840571,25.9330429 23.3837946,26.1333333 22.9466501,26.1333333 L14.6603598,26.1333333 C14.2838162,26.1333333 14.0822942,25.9330429 14.0229529,25.5111111 L14.0229529,18.0444444 L14.0229529,18.0444444 C15.5540346,17.2976827 17.3236498,17.3774279 19.7596154,18.0444444 C20.5070678,18.2138258 21.1972807,18.3949527 21.6718362,18.6666667 L21.6718362,16.8 L20.3970223,16.1777778 C18.6990375,15.9605587 17.3211308,15.7571774 15.9351737,15.5555556 C13.3284759,15.7571774 11.9776486,16.8649565 10.8359181,18.0444444 C9.94857388,18.5260069 9.34715662,19.0193147 8.28629032,19.2888889 L5.09925558,19.2888889 C4.40986731,19.0193147 4.07546672,19.2536051 3.82444169,19.9111111 C3.95014522,19.6220405 3.33172454,21.4326905 3.18703474,22.4 C2.80902682,22.7061419 2.36945693,22.5596332 2.54962779,22.4 C2.03442659,22.4335244 1.80582505,22.243743 1.91222084,21.7777778 L1.91222084,21.7777778 Z M25.4962779,11.2 L25.4962779,11.2 C27.3698023,11.1244882 28.3501567,10.5383477 29.3207196,9.33333333 L29.3207196,8.71111111 C29.5004894,8.29983712 29.7802322,7.80133193 29.9581266,7.46666667 L30.5955335,7.46666667 L30.5955335,9.33333333 C30.3880143,9.66643987 30.6564671,10.0169811 31.2329404,9.95555556 C31.0522468,10.1236676 33.3347226,10.7282242 35.0573821,11.2 L35.0573821,11.2 L35.0573821,13.0666667 C35.0746478,13.3407724 34.9441848,13.4455537 35.0573821,13.6888889 C34.6205361,13.7040144 33.9726116,13.7662481 33.1451613,13.6888889 C32.6410105,13.4474588 31.3570787,13.1566112 31.2329404,13.0666667 C31.0710636,13.0918373 30.8126464,13.0588153 30.5955335,13.0666667 C29.2332911,13.0588153 28.486892,13.9218325 28.0459057,14.9333333 C27.9110984,15.7374075 28.3407483,17.1541783 29.9581266,18.0444444 C30.8515344,18.2178677 33.6125838,19.0034102 35.6947891,19.2888889 C36.043085,19.6943321 36.5630554,19.8435661 36.969603,19.9111111 C37.2918921,20.0607493 37.5346286,20.2563411 37.6070099,20.5333333 C37.6349848,20.6767366 37.5766528,20.8742335 37.6070099,21.1555556 C37.3389341,21.1028474 37.1965538,21.1555556 36.969603,21.1555556 C36.9262193,21.1555556 36.8145731,21.1365044 36.969603,21.1555556 C32.1028505,19.7070328 29.0614311,18.7881322 25.4962779,18.0444444 L25.4962779,18.0444444 L25.4962779,11.2 L25.4962779,11.2 Z M1.2748139,24.2666667 C1.7548426,24.3342409 2.06304334,24.3886087 2.54962779,24.2666667 C3.34678855,24.3886087 4.15740743,23.8430567 4.46184864,23.0222222 C4.74324354,22.4194974 5.06354307,21.5239923 5.09925558,21.1555556 L5.09925558,20.5333333 L8.28629032,20.5333333 C9.93553445,20.8109628 10.9690258,19.9629514 12.110732,19.2888889 C11.9770459,19.1361871 12.0757466,19.054948 12.110732,18.6666667 L12.110732,18.6666667 L12.110732,25.5111111 C12.310081,27.0226309 13.3060024,28 14.6603598,28 L22.9466501,28 C24.4579022,28 25.4557339,27.0226309 25.4962779,25.5111111 L25.4962779,19.2888889 L25.4962779,19.9111111 C28.9841229,20.555997 32.1769297,21.4914967 36.332196,22.4 C37.2520534,22.9831719 38.1651936,22.8000714 38.8818238,22.4 C39.3960862,21.6595992 39.6463401,20.8309601 39.5192308,19.9111111 C39.2464433,19.1949293 38.5498077,18.5368924 37.6070099,18.0444444 C37.1501689,18.1313217 31.5178641,16.479043 30.5955335,16.1777778 C30.2615003,16.1003437 30.0679197,15.9603625 29.9581266,15.5555556 C29.9055412,15.6310316 29.9049044,15.4623042 29.9581266,15.5555556 C30.1207723,14.9211266 30.4544442,14.7980181 31.2329404,14.9333333 C30.9931587,14.9192519 32.3042854,15.2067134 33.1451613,15.5555556 C33.4205579,15.4660537 33.7784273,15.5060483 34.4199752,15.5555556 C34.6750113,15.5060483 35.4639797,15.403562 36.332196,14.9333333 C36.4821883,14.6149176 36.9489469,14.044994 36.969603,13.0666667 L36.969603,10.5777778 C36.9489469,10.2879971 36.6865942,9.94679284 36.332196,9.95555556 C35.4614326,9.59683971 34.0974533,9.23001384 32.5077543,8.71111111 L32.5077543,8.71111111 L32.5077543,6.84444444 C32.1909388,6.12980404 31.7935891,5.73985627 31.2329404,5.6 C28.9433691,5.73985627 28.087539,7.39026023 27.4084988,8.08888889 L27.4084988,8.71111111 C27.2240675,9.03254028 26.9757239,9.4968531 25.4962779,9.33333333 L25.4962779,9.33333333 L25.4962779,2.48888889 C25.4557339,0.978618935 24.4579022,0 22.9466501,0 L14.6603598,0 C13.3060024,0 12.310081,0.978618935 12.110732,2.48888889 L12.110732,9.33333333 L12.110732,9.33333333 C9.97437793,9.4699817 8.02137864,9.08065884 7.01147643,8.71111111 C5.66275152,8.03142436 5.26094436,7.6189796 5.09925558,7.46666667 C4.46624495,6.79721466 4.12811563,6.6647324 3.82444169,6.84444444 C3.36971257,6.92594742 3.12200579,7.35089051 3.18703474,7.46666667 C3.71548324,10.2542517 5.40167239,12.0777574 6.37406948,12.4444444 L6.37406948,12.4444444 L6.37406948,12.4444444 C5.49336847,13.7319109 5.31379697,15.0579833 5.09925558,16.1777778 L5.09925558,16.1777778 L2.54962779,16.1777778 C2.30374557,16.0615989 1.96625303,16.2990671 1.91222084,16.8 C1.59182734,17.397045 0.704158276,19.8735884 3.55271368e-15,21.1555556 C-0.357988061,22.6932107 0.429070016,23.8299335 1.2748139,24.2666667 L1.2748139,24.2666667 Z" id="Fill-97"></path>
                                <polygon id="Fill-98" points="16.5725806 23.0222222 19.7596154 23.0222222 19.7596154 24.2666667 16.5725806 24.2666667"></polygon>
                            </g>
                            <g id="Fill-93-+-Group" transform="translate(46.544872, 3.500000)" fill="#FFFFFE">
                                <path d="M57.6699744,1.246 L56.8084551,1.246 C56.2745064,1.246 55.8415513,1.677375 55.8415513,2.211125 L55.8415513,3.52625 C55.8415513,4.059125 56.2745064,4.4905 56.8084551,4.4905 L57.6699744,4.4905 C58.2030449,4.4905 58.6368782,4.059125 58.6368782,3.52625 L58.6368782,2.211125 C58.6368782,1.677375 58.2030449,1.246 57.6699744,1.246" id="Fill-93"></path>
                                <g id="Group">
                                    <path d="M48.80625,11.781 L53.0550064,7.6335 C53.3070513,7.38675 53.3834551,7.0175 53.2490897,6.69025 C53.1156026,6.362125 52.8003269,6.1495 52.4464103,6.1495 L51.4979487,6.1495 C51.2625897,6.1495 51.0404038,6.244 50.8753013,6.41375 L44.7445513,12.69975 L44.7445513,1.514625 C44.7445513,1.036 44.3555064,0.648375 43.8768846,0.648375 L43.1646603,0.648375 C42.6851603,0.648375 42.2978718,1.036 42.2978718,1.514625 L42.2978718,19.415375 C42.2978718,19.89575 42.6851603,20.283375 43.1646603,20.283375 L43.8768846,20.283375 C44.3555064,20.283375 44.7445513,19.89575 44.7445513,19.415375 L44.7445513,15.868125 L47.1262436,13.481125 L51.6270449,19.91325 C51.790391,20.14425 52.055609,20.283375 52.3392692,20.283375 L53.2051795,20.283375 C53.5318718,20.283375 53.8278269,20.104 53.9762436,19.814375 C54.1255385,19.52475 54.1018269,19.179125 53.9130128,18.914875 L48.80625,11.781" id="Fill-89"></path>
                                    <path d="M23.0792308,18.066125 C20.4279295,18.066125 18.5749167,16.074625 18.5749167,13.225625 C18.5749167,10.374875 20.4279295,8.3825 23.0792308,8.3825 C25.7103333,8.3825 27.4772821,10.329375 27.4772821,13.225625 C27.4772821,16.121875 25.7103333,18.066125 23.0792308,18.066125 L23.0792308,18.066125 Z M29.0343397,6.16875 L28.3352885,6.16875 C27.8013397,6.16875 27.3683846,6.598375 27.3683846,7.130375 L27.3683846,7.79625 L27.2006474,7.63175 C26.0958654,6.531875 24.5756923,5.95175 22.8087436,5.95175 C18.8287179,5.95175 15.9411795,9.011625 15.9411795,13.225625 C15.9411795,17.44225 18.8287179,20.498625 22.8087436,20.498625 C24.5827179,20.498625 26.1020128,19.9255 27.2006474,18.84225 L27.3683846,18.676875 L27.3683846,19.320875 C27.3683846,19.852 27.8013397,20.283375 28.3352885,20.283375 L29.0343397,20.283375 C29.5665321,20.283375 30.0012436,19.852 30.0012436,19.320875 L30.0012436,7.130375 C30.0012436,6.598375 29.5665321,6.16875 29.0343397,6.16875 L29.0343397,6.16875 Z" id="Fill-90"></path>
                                    <path d="M39.6333974,5.9815 C37.5985962,6.181875 36.3972115,7.317625 35.7438269,8.23375 L35.5673077,8.483125 L35.5673077,7.130375 C35.5673077,6.598375 35.1325962,6.16875 34.5986474,6.16875 L33.9013526,6.16875 C33.3682821,6.16875 32.9335705,6.598375 32.9335705,7.130375 L32.9335705,19.320875 C32.9335705,19.852 33.3682821,20.283375 33.9013526,20.283375 L34.5986474,20.283375 C35.1325962,20.283375 35.5673077,19.852 35.5673077,19.320875 L35.5673077,14.035 C35.5673077,12.761875 35.9440577,11.473875 36.6044679,10.50175 C36.6264231,10.46675 36.6422308,10.43 36.6589167,10.3915 L36.7080962,10.318875 C36.7432244,10.287375 36.7792308,10.255 36.8117244,10.21475 C37.3412821,9.534875 38.2915,8.6975 39.8020128,8.586375 C40.3034679,8.5505 40.6969038,8.127875 40.6969038,7.6265 L40.6969038,6.9405 C40.6969038,6.670125 40.5801026,6.4085 40.3798718,6.225625 C40.1770064,6.043625 39.9038846,5.9535 39.6333974,5.9815" id="Fill-91"></path>
                                    <path d="M57.5900577,6.16875 L56.8901282,6.16875 C56.3588141,6.16875 55.9249808,6.598375 55.9249808,7.130375 L55.9249808,19.320875 C55.9249808,19.852 56.3588141,20.283375 56.8901282,20.283375 L57.5900577,20.283375 C58.12225,20.283375 58.5569615,19.852 58.5569615,19.320875 L58.5569615,7.130375 C58.5569615,6.598375 58.12225,6.16875 57.5900577,6.16875" id="Fill-92"></path>
                                    <path d="M89.0763462,6.16875 L88.3764167,6.16875 C87.8433462,6.16875 87.4086346,6.598375 87.4086346,7.130375 L87.4086346,14.252 C87.4086346,14.9905 87.2215769,15.694 86.8685385,16.286375 C86.8079423,16.387875 86.7649103,16.50075 86.7447115,16.622375 L86.7350513,16.671375 L86.6902628,16.69325 C86.5769744,16.74925 86.4803718,16.821875 86.4039679,16.905 C85.697891,17.654875 84.7081538,18.066125 83.608641,18.066125 C81.5158782,18.066125 80.1072372,16.54625 80.1072372,14.280875 L80.1072372,7.130375 C80.1072372,6.598375 79.6742821,6.16875 79.1420897,6.16875 L78.4421603,6.16875 C77.9099679,6.16875 77.4770128,6.598375 77.4770128,7.130375 L77.4770128,14.3325 C77.4770128,18.382875 80.3566474,20.498625 83.2029103,20.498625 C84.8407628,20.498625 86.1229423,19.977125 87.2426538,18.8615 L87.4086346,18.6935 L87.4086346,19.320875 C87.4086346,19.852 87.8433462,20.283375 88.3764167,20.283375 L89.0763462,20.283375 C89.6085385,20.283375 90.0406154,19.852 90.0406154,19.320875 L90.0406154,7.130375 C90.0406154,6.598375 89.6085385,6.16875 89.0763462,6.16875" id="Fill-94"></path>
                                    <path d="M68.6800321,5.95175 C68.2628846,5.95175 67.9028205,5.975375 67.5770064,6.029625 C66.7673013,6.155625 66.3931859,6.62025 66.4616859,7.406875 C66.5301859,8.208375 66.9332821,8.52425 67.7447436,8.428875 C67.9625385,8.40175 68.1785769,8.3825 68.4077885,8.3825 C71.0626026,8.3825 72.9156154,10.374875 72.9156154,13.225625 C72.9156154,16.074625 71.0626026,18.066125 68.4077885,18.066125 C66.278141,18.066125 64.1195128,16.804375 64.1195128,14.391125 L64.1195128,1.72375 C64.1195128,1.19 63.6848013,0.7595 63.1534872,0.7595 L62.4518013,0.7595 C61.9204872,0.7595 61.4875321,1.19 61.4875321,1.72375 L61.4875321,19.320875 C61.4875321,19.852 61.9204872,20.283375 62.4518013,20.283375 L63.1534872,20.283375 C63.6848013,20.283375 64.1195128,19.852 64.1195128,19.320875 L64.1195128,18.676875 L64.2863718,18.84225 C65.4025705,19.94125 66.8814679,20.498625 68.6800321,20.498625 C72.6583013,20.498625 75.5467179,17.44225 75.5467179,13.225625 C75.5467179,9.011625 72.6583013,5.95175 68.6800321,5.95175" id="Fill-95"></path>
                                    <path d="M7.20479487,5.95175 C6.78852564,5.95175 6.42933974,5.975375 6.10352564,6.029625 C5.28416026,6.157375 4.91794872,6.608875 4.98557051,7.406875 C5.05582692,8.208375 5.46770513,8.525125 6.27126282,8.428875 C6.48905769,8.40175 6.70333974,8.3825 6.93342949,8.3825 C9.58736538,8.3825 11.4403782,10.374875 11.4403782,13.225625 C11.4403782,16.074625 9.58736538,18.066125 6.93342949,18.066125 C4.80202564,18.066125 2.64427564,16.804375 2.64427564,14.391125 L2.64427564,1.72375 C2.64427564,1.19 2.21132051,0.7595 1.67737179,0.7595 L0.979198718,0.7595 C0.44525,0.7595 0.0131730769,1.19 0.0131730769,1.72375 L0.0131730769,19.320875 C0.0131730769,19.852 0.44525,20.283375 0.979198718,20.283375 L1.67737179,20.283375 C2.21132051,20.283375 2.64427564,19.852 2.64427564,19.320875 L2.64427564,18.676875 L2.81201282,18.84225 C3.92733333,19.94125 5.40535256,20.498625 7.20479487,20.498625 C11.1848205,20.498625 14.0714808,17.44225 14.0714808,13.225625 C14.0714808,9.011625 11.1848205,5.95175 7.20479487,5.95175" id="Fill-96"></path>
                                </g>
                            </g>
                        </g>
                    </g>
                </g>
            </g>
        </g>
    </g>
</svg>