<?xml version="1.0" encoding="UTF-8"?>
<svg width="36px" height="33px" viewBox="0 0 36 33" version="1.1" xmlns="http://www.w3.org/2000/svg" xmlns:xlink="http://www.w3.org/1999/xlink">
    <title>icon</title>
    <g id="Landing-Page" stroke="none" stroke-width="1" fill="none" fill-rule="evenodd">
        <g id="00---00-Landing-Spanish" transform="translate(-800.000000, -381.000000)" fill="#2882DE">
            <g id="Hero-Asset" transform="translate(12.000000, 214.000000)">
                <g id="Messages" transform="translate(700.000000, 0.000000)">
                    <g id="Bubbles" transform="translate(88.000000, 53.000000)">
                        <g id="01">
                            <g id="Bubble-02" transform="translate(0.000000, 59.000000)">
                                <g id="Assitant-logo" transform="translate(0.000000, 55.400000)">
                                    <g id="icon" transform="translate(0.000000, 0.600000)">
                                        <path d="M15.8897175,0.271954688 C14.439053,0.271954688 13.3737497,1.3250999 13.1602263,2.95195469 L13.1602263,10.3269555 C10.8719581,10.4741517 8.77798633,10.0525286 7.69627119,9.65445504 C6.25163989,8.92229888 5.8235818,8.47852544 5.65039545,8.31445504 C4.97237214,7.59332429 4.60843179,7.45086976 4.28316387,7.64445466 C3.79609948,7.73224922 3.53238073,8.1897408 3.60203387,8.31445504 C4.16805967,11.3172262 5.97359805,13.2819622 7.01514131,13.6769549 C6.07181465,15.0638067 5.88019263,16.4932186 5.65039545,17.6994547 L2.91841814,17.6994547 C2.65505157,17.5743091 2.2926766,17.8298522 2.23480229,18.3694554 C1.89162589,19.0125888 0.940670895,21.6785267 0.18644071,23.0594547 C-0.197003414,24.715808 0.647788567,25.9415091 1.55367228,26.4119552 C2.06783532,26.4847488 5.34463283,25.7419546 5.34463283,25.7419558 C5.34463283,25.7419558 5.8361817,23.6044557 6.78644061,23.6044557 C8.59077368,23.6044557 12.3069026,21.556119 13.1602263,21.0494554 C13.0170335,20.8849651 13.1602263,27.7519552 13.1602263,27.7519552 C13.3737497,29.3801562 14.439053,30.434455 15.8897175,30.434455 L24.7667792,30.434455 C26.3854949,30.434455 27.4528448,29.3801562 27.4962717,27.7519552 L27.4962717,23.374455 C27.3032322,23.3990182 27.1108189,23.4319526 26.9170628,23.4319526 C26.4201473,23.4319526 25.9266912,23.3309094 25.4479101,23.1694528 L25.4479101,27.7519526 C25.4479101,28.206455 25.235009,28.4219533 24.7667792,28.4219533 L15.8897175,28.4219533 C15.4863989,28.4219533 15.2721487,28.206455 15.2085879,27.7519526 L15.2085879,19.7094528 C16.8485436,18.9050458 18.7420029,18.9909466 21.3511869,19.7094528 L19.3077968,17.5919552 C19.2128737,17.4951872 19.1427034,17.3830157 19.0542371,17.2819546 C18.4795186,17.1990234 17.8153982,17.1111578 17.2569495,17.0294554 C14.4648928,17.2466419 13.0159122,18.4389171 11.7929944,19.7094554 C10.842552,20.228192 10.1998066,20.759072 9.06350289,21.0494554 L5.65039545,21.0494554 C4.91198565,20.7590707 4.55203899,21.0111962 4.28316387,21.7194547 C4.41780609,21.4080691 3.75701238,23.3599744 3.60203387,24.4019546 C3.19714614,24.7317299 2.72543553,24.5739098 2.91841814,24.4019546 C2.36658142,24.4380634 2.12084078,24.2338906 2.23480229,23.7319552 C2.73264627,22.5937779 3.4325598,20.6517056 3.60203387,19.7094554 L7.01514131,19.7094554 C7.1716423,19.3951501 7.4229914,19.2868621 7.69627119,19.0394547 C7.77644923,18.9072986 7.86278989,18.6498509 7.69627119,18.3694554 C7.77172726,17.6203686 7.83015573,15.2288128 9.06350289,14.3469555 C9.21363228,14.1880102 9.35191245,13.8692979 9.06350289,13.6769549 C9.28378409,13.2260378 9.08344717,12.9492787 9.06350289,13.0069555 C8.72931426,12.7841357 7.43787554,12.156288 6.33152546,10.9969549 L7.01514131,10.9969549 C8.98884637,11.963177 12.2940654,12.5732979 15.2085879,12.3369549 L17.2793222,12.3369549 C17.2912862,11.8867098 17.345328,11.4405171 17.440904,10.9969549 L15.2085879,10.9969549 L15.2085879,2.95195469 C15.2721499,2.49545421 15.4863989,2.28195469 15.8897175,2.28195469 L24.7667792,2.28195469 C25.235009,2.28195469 25.4479101,2.49545421 25.4479101,2.95195469 L25.4479101,5.52945472 C26.0053228,5.63975872 26.5581968,5.80500877 27.0910731,6.04445466 C27.2249684,5.9913129 27.3612564,5.94440986 27.4962717,5.89445466 L27.4962717,2.95195469 C27.4528448,1.3250999 26.3854949,0.271954688 24.7667792,0.271954688 L15.8897175,0.271954688 Z" id="path5"></path>
                                        <polygon id="path7" points="17.9384826 25.0794163 22.6249111 25.0794163 22.6249111 26.4199245 17.9384826 26.4199245"></polygon>
                                        <g id="g97" transform="translate(19.212580, 6.680000)" fill-rule="nonzero">
                                            <path d="M10.868248,0.967500032 C9.83749395,0.891008512 8.80698559,1.23487373 7.90011268,1.84749952 C5.78723574,0.347891328 2.87532246,0.800409984 1.33242938,2.92999936 C-0.0880946621,4.89069568 0.112339627,7.62467712 1.80226036,9.34749952 L6.08542373,13.7824998 C7.04208861,14.7634202 8.61147055,14.7634214 9.56813543,13.7824998 L13.8488131,9.35000064 L13.8537769,9.34500864 C15.7392305,7.44832512 15.7735481,4.34140416 13.9283484,2.4025088 C13.9228755,2.3967488 13.9155061,2.3897088 13.908455,2.3825024 L13.908455,2.3799424 C13.0675382,1.52557312 11.9810128,1.0500768 10.868248,0.967500032 Z M5.23525392,3.08999936 C5.92657333,3.08999936 6.61567557,3.35903872 7.14937917,3.9 L7.14937917,3.89744 C7.54688255,4.30889088 8.21272877,4.3131264 8.61355916,3.904992 C9.68562214,2.82018816 11.3824451,2.81863808 12.4492655,3.9 C13.4948575,4.99279616 13.4904792,6.73574784 12.4591931,7.83750016 L12.44672,7.85004416 L8.16355536,12.2500442 L8.16100983,12.2500442 C8.00307964,12.4135168 7.76583561,12.4146394 7.60665938,12.2526042 L3.3210103,7.85260416 L3.31846477,7.85004416 C2.27326739,6.75051264 2.27415578,4.99607552 3.3210103,3.89754496 C3.85436898,3.35827584 4.54489672,3.08999936 5.23513428,3.08999936 L5.23525392,3.08999936 Z" id="use11"></path>
                                            <path d="M8.23658299,5.60262144 C8.17323731,5.59238144 7.77554811,5.4172608 7.35016474,5.71698944 C7.24680322,5.8498944 7.17611367,6.06770176 7.11532625,6.4098176 C7.10552593,6.5105152 7.07276488,6.60760192 7.05148419,6.70649472 C6.65439828,6.72796032 6.017813,7.04877952 5.88498817,7.18511488 C5.75510725,7.31842816 5.67368825,7.50084736 5.67368825,7.71011456 C5.67368825,7.91938176 5.75510725,8.09930112 5.88498817,8.2326144 C6.017813,8.3689472 6.22300999,8.47935488 6.61583594,8.56511488 L7.1154968,8.67511808 L7.1154968,9.1901184 C7.1154968,9.3993856 7.19691579,9.58180608 7.32679544,9.71511808 C7.45962027,9.85145344 7.63672981,9.93261824 7.83888615,9.93261824 C8.0410425,9.93261824 8.21566632,9.85145344 8.34849115,9.71511808 C8.47837207,9.58180736 8.58245652,9.38166656 8.65425339,8.97761792 L8.74871825,8.4501184 L9.28069597,8.4501184 C9.48285232,8.4501184 9.65996058,8.3689536 9.79278541,8.23261824 C9.92266633,8.09930496 10.0040853,7.9193856 10.0040853,7.7101184 C10.0040853,7.5008512 9.92266633,7.318432 9.79278541,7.18511872 C9.65991603,7.04878848 9.45471905,6.9383808 9.06189309,6.8526208 L8.55974652,6.7451264 L8.55974652,6.22762624 C8.55974652,6.01836032 8.47832752,5.83843712 8.34844788,5.7051264 C8.19187191,5.5444096 8.31258126,5.614912 8.23658427,5.602624 L8.23658299,5.60262144 Z" id="path76"></path>
                                        </g>
                                    </g>
                                </g>
                            </g>
                        </g>
                    </g>
                </g>
            </g>
        </g>
    </g>
</svg>