<?xml version="1.0" encoding="UTF-8"?>
<svg width="271px" height="31px" viewBox="0 0 271 31" version="1.1" xmlns="http://www.w3.org/2000/svg" xmlns:xlink="http://www.w3.org/1999/xlink">
    <title>Logo</title>
    <g id="Landing-Page" stroke="none" stroke-width="1" fill="none" fill-rule="evenodd">
        <g id="00---00-Landing-Spanish" transform="translate(-181.000000, -102.000000)">
            <g id="Head" transform="translate(181.000000, 102.000000)">
                <g id="Logo">
                    <g fill="#2882DE">
                        <g id="Barkibu" transform="translate(47.728814, 0.000000)">
                            <path d="M69.3292978,16.83 L75.364658,10.905 C75.7226879,10.5525 75.8312196,10.025 75.6403535,9.5575 C75.4507349,9.08875 75.0028857,8.785 74.5001469,8.785 L73.1528569,8.785 C72.8185294,8.785 72.5029143,8.92 72.268386,9.1625 L63.5596532,18.1425 L63.5596532,2.16375 C63.5596532,1.48 63.0070148,0.92625 62.3271323,0.92625 L61.3154173,0.92625 C60.6342874,0.92625 60.084144,1.48 60.084144,2.16375 L60.084144,27.73625 C60.084144,28.4225 60.6342874,28.97625 61.3154173,28.97625 L62.3271323,28.97625 C63.0070148,28.97625 63.5596532,28.4225 63.5596532,27.73625 L63.5596532,22.66875 L66.942848,19.25875 L73.3362381,28.4475 C73.5682714,28.7775 73.9450136,28.97625 74.3479531,28.97625 L75.5779789,28.97625 C76.0420455,28.97625 76.4624499,28.72 76.6732758,28.30625 C76.8853492,27.8925 76.851667,27.39875 76.5834565,27.02125 L69.3292978,16.83" id="Fill-89"></path>
                            <path d="M32.7840566,25.80875 C29.0178821,25.80875 26.3856766,22.96375 26.3856766,18.89375 C26.3856766,14.82125 29.0178821,11.975 32.7840566,11.975 C36.5215389,11.975 39.0314902,14.75625 39.0314902,18.89375 C39.0314902,23.03125 36.5215389,25.80875 32.7840566,25.80875 L32.7840566,25.80875 Z M41.2432913,8.8125 L40.2502887,8.8125 C39.4918143,8.8125 38.8768014,9.42625 38.8768014,10.18625 L38.8768014,11.1375 L38.6385307,10.9025 C37.0691873,9.33125 34.9097808,8.5025 32.3998295,8.5025 C26.7462014,8.5025 22.6444519,12.87375 22.6444519,18.89375 C22.6444519,24.9175 26.7462014,29.28375 32.3998295,29.28375 C34.9197608,29.28375 37.0779197,28.465 38.6385307,26.9175 L38.8768014,26.68125 L38.8768014,27.60125 C38.8768014,28.36 39.4918143,28.97625 40.2502887,28.97625 L41.2432913,28.97625 C41.9992707,28.97625 42.6167786,28.36 42.6167786,27.60125 L42.6167786,10.18625 C42.6167786,9.42625 41.9992707,8.8125 41.2432913,8.8125 L41.2432913,8.8125 Z" id="Fill-90"></path>
                            <path d="M56.2992571,8.545 C53.408821,8.83125 51.7022537,10.45375 50.7741206,11.7625 L50.5233749,12.11875 L50.5233749,10.18625 C50.5233749,9.42625 49.905867,8.8125 49.1473926,8.8125 L48.156885,8.8125 C47.3996581,8.8125 46.7821502,9.42625 46.7821502,10.18625 L46.7821502,27.60125 C46.7821502,28.36 47.3996581,28.97625 48.156885,28.97625 L49.1473926,28.97625 C49.905867,28.97625 50.5233749,28.36 50.5233749,27.60125 L50.5233749,20.05 C50.5233749,18.23125 51.0585485,16.39125 51.9966615,15.0025 C52.0278488,14.9525 52.0503036,14.9 52.0740059,14.845 L52.1438654,14.74125 C52.193765,14.69625 52.2449121,14.65 52.2910693,14.5925 C53.0433062,13.62125 54.3930912,12.425 56.5387753,12.26625 C57.2510925,12.215 57.8099683,11.61125 57.8099683,10.895 L57.8099683,9.915 C57.8099683,9.52875 57.6440521,9.155 57.3596242,8.89375 C57.0714538,8.63375 56.6834842,8.505 56.2992571,8.545" id="Fill-91"></path>
                            <path d="M81.8067002,8.8125 L80.8124501,8.8125 C80.0577182,8.8125 79.4414578,9.42625 79.4414578,10.18625 L79.4414578,27.60125 C79.4414578,28.36 80.0577182,28.97625 80.8124501,28.97625 L81.8067002,28.97625 C82.5626796,28.97625 83.1801875,28.36 83.1801875,27.60125 L83.1801875,10.18625 C83.1801875,9.42625 82.5626796,8.8125 81.8067002,8.8125" id="Fill-92"></path>
                            <path d="M126.532986,8.8125 L125.538736,8.8125 C124.781509,8.8125 124.164001,9.42625 124.164001,10.18625 L124.164001,20.36 C124.164001,21.415 123.898285,22.42 123.396794,23.26625 C123.310717,23.41125 123.24959,23.5725 123.220898,23.74625 L123.207175,23.81625 L123.143553,23.8475 C122.982627,23.9275 122.845403,24.03125 122.736871,24.15 C121.733889,25.22125 120.327967,25.80875 118.766108,25.80875 C115.793338,25.80875 113.792363,23.6375 113.792363,20.40125 L113.792363,10.18625 C113.792363,9.42625 113.17735,8.8125 112.42137,8.8125 L111.42712,8.8125 C110.671141,8.8125 110.056128,9.42625 110.056128,10.18625 L110.056128,20.475 C110.056128,26.26125 114.14665,29.28375 118.189768,29.28375 C120.516338,29.28375 122.337674,28.53875 123.928225,26.945 L124.164001,26.705 L124.164001,27.60125 C124.164001,28.36 124.781509,28.97625 125.538736,28.97625 L126.532986,28.97625 C127.288965,28.97625 127.90273,28.36 127.90273,27.60125 L127.90273,10.18625 C127.90273,9.42625 127.288965,8.8125 126.532986,8.8125" id="Fill-94"></path>
                            <path d="M97.5600132,8.5025 C96.9674551,8.5025 96.4559839,8.53625 95.9931649,8.61375 C94.8429784,8.79375 94.3115474,9.4575 94.4088516,10.58125 C94.5061559,11.72625 95.0787542,12.1775 96.2314356,12.04125 C96.5408133,12.0025 96.847696,11.975 97.1732911,11.975 C100.944456,11.975 103.576661,14.82125 103.576661,18.89375 C103.576661,22.96375 100.944456,25.80875 97.1732911,25.80875 C94.1481261,25.80875 91.0817938,24.00625 91.0817938,20.55875 L91.0817938,2.4625 C91.0817938,1.7 90.4642859,1.085 89.709554,1.085 L88.7128089,1.085 C87.958077,1.085 87.3430641,1.7 87.3430641,2.4625 L87.3430641,27.60125 C87.3430641,28.36 87.958077,28.97625 88.7128089,28.97625 L89.709554,28.97625 C90.4642859,28.97625 91.0817938,28.36 91.0817938,27.60125 L91.0817938,26.68125 L91.3188171,26.9175 C92.9043778,28.4875 95.0051522,29.28375 97.5600132,29.28375 C103.211146,29.28375 107.314143,24.9175 107.314143,18.89375 C107.314143,12.87375 103.211146,8.5025 97.5600132,8.5025" id="Fill-95"></path>
                            <path d="M10.234414,8.5025 C9.64310341,8.5025 9.1328797,8.53625 8.67006064,8.61375 C7.50615178,8.79625 6.98594814,9.44125 7.08200493,10.58125 C7.18180418,11.72625 7.76687734,12.17875 8.90833137,12.04125 C9.21770907,12.0025 9.52209681,11.975 9.84893938,11.975 C13.6188564,11.975 16.2510619,14.82125 16.2510619,18.89375 C16.2510619,22.96375 13.6188564,25.80875 9.84893938,25.80875 C6.82127936,25.80875 3.75619462,24.00625 3.75619462,20.55875 L3.75619462,2.4625 C3.75619462,1.7 3.14118168,1.085 2.38270731,1.085 L1.39095217,1.085 C0.632477805,1.085 0.0187123611,1.7 0.0187123611,2.4625 L0.0187123611,27.60125 C0.0187123611,28.36 0.632477805,28.97625 1.39095217,28.97625 L2.38270731,28.97625 C3.14118168,28.97625 3.75619462,28.36 3.75619462,27.60125 L3.75619462,26.68125 L3.99446535,26.9175 C5.57877858,28.4875 7.6783055,29.28375 10.234414,29.28375 C15.8880421,29.28375 19.9885441,24.9175 19.9885441,18.89375 C19.9885441,12.87375 15.8880421,8.5025 10.234414,8.5025" id="Fill-96"></path>
                            <path d="M81.9202218,1.78 L80.6964334,1.78 C79.9379591,1.78 79.3229461,2.39625 79.3229461,3.15875 L79.3229461,5.0375 C79.3229461,5.79875 79.9379591,6.415 80.6964334,6.415 L81.9202218,6.415 C82.6774487,6.415 83.2937092,5.79875 83.2937092,5.0375 L83.2937092,3.15875 C83.2937092,2.39625 82.6774487,1.78 81.9202218,1.78" id="Fill-93"></path>
                        </g>
                        <g id="Imagotype">
                            <path d="M15.8897175,0.271954688 C14.439053,0.271954688 13.3737497,1.3250999 13.1602263,2.95195469 L13.1602263,10.3269555 C10.8719581,10.4741517 8.77798633,10.0525286 7.69627119,9.65445504 C6.25163989,8.92229888 5.8235818,8.47852544 5.65039545,8.31445504 C4.97237214,7.59332429 4.60843179,7.45086976 4.28316387,7.64445466 C3.79609948,7.73224922 3.53238073,8.1897408 3.60203387,8.31445504 C4.16805967,11.3172262 5.97359805,13.2819622 7.01514131,13.6769549 C6.07181465,15.0638067 5.88019263,16.4932186 5.65039545,17.6994547 L2.91841814,17.6994547 C2.65505157,17.5743091 2.2926766,17.8298522 2.23480229,18.3694554 C1.89162589,19.0125888 0.940670895,21.6785267 0.18644071,23.0594547 C-0.197003414,24.715808 0.647788567,25.9415091 1.55367228,26.4119552 C2.06783532,26.4847488 5.34463283,25.7419546 5.34463283,25.7419558 C5.34463283,25.7419558 5.8361817,23.6044557 6.78644061,23.6044557 C8.59077368,23.6044557 12.3069026,21.556119 13.1602263,21.0494554 C13.0170335,20.8849651 13.1602263,27.7519552 13.1602263,27.7519552 C13.3737497,29.3801562 14.439053,30.434455 15.8897175,30.434455 L24.7667792,30.434455 C26.3854949,30.434455 27.4528448,29.3801562 27.4962717,27.7519552 L27.4962717,23.374455 C27.3032322,23.3990182 27.1108189,23.4319526 26.9170628,23.4319526 C26.4201473,23.4319526 25.9266912,23.3309094 25.4479101,23.1694528 L25.4479101,27.7519526 C25.4479101,28.206455 25.235009,28.4219533 24.7667792,28.4219533 L15.8897175,28.4219533 C15.4863989,28.4219533 15.2721487,28.206455 15.2085879,27.7519526 L15.2085879,19.7094528 C16.8485436,18.9050458 18.7420029,18.9909466 21.3511869,19.7094528 L19.3077968,17.5919552 C19.2128737,17.4951872 19.1427034,17.3830157 19.0542371,17.2819546 C18.4795186,17.1990234 17.8153982,17.1111578 17.2569495,17.0294554 C14.4648928,17.2466419 13.0159122,18.4389171 11.7929944,19.7094554 C10.842552,20.228192 10.1998066,20.759072 9.06350289,21.0494554 L5.65039545,21.0494554 C4.91198565,20.7590707 4.55203899,21.0111962 4.28316387,21.7194547 C4.41780609,21.4080691 3.75701238,23.3599744 3.60203387,24.4019546 C3.19714614,24.7317299 2.72543553,24.5739098 2.91841814,24.4019546 C2.36658142,24.4380634 2.12084078,24.2338906 2.23480229,23.7319552 C2.73264627,22.5937779 3.4325598,20.6517056 3.60203387,19.7094554 L7.01514131,19.7094554 C7.1716423,19.3951501 7.4229914,19.2868621 7.69627119,19.0394547 C7.77644923,18.9072986 7.86278989,18.6498509 7.69627119,18.3694554 C7.77172726,17.6203686 7.83015573,15.2288128 9.06350289,14.3469555 C9.21363228,14.1880102 9.35191245,13.8692979 9.06350289,13.6769549 C9.28378409,13.2260378 9.08344717,12.9492787 9.06350289,13.0069555 C8.72931426,12.7841357 7.43787554,12.156288 6.33152546,10.9969549 L7.01514131,10.9969549 C8.98884637,11.963177 12.2940654,12.5732979 15.2085879,12.3369549 L17.2793222,12.3369549 C17.2912862,11.8867098 17.345328,11.4405171 17.440904,10.9969549 L15.2085879,10.9969549 L15.2085879,2.95195469 C15.2721499,2.49545421 15.4863989,2.28195469 15.8897175,2.28195469 L24.7667792,2.28195469 C25.235009,2.28195469 25.4479101,2.49545421 25.4479101,2.95195469 L25.4479101,5.52945472 C26.0053228,5.63975872 26.5581968,5.80500877 27.0910731,6.04445466 C27.2249684,5.9913129 27.3612564,5.94440986 27.4962717,5.89445466 L27.4962717,2.95195469 C27.4528448,1.3250999 26.3854949,0.271954688 24.7667792,0.271954688 L15.8897175,0.271954688 Z" id="path5"></path>
                            <polygon id="path7" points="17.9384826 25.0794163 22.6249111 25.0794163 22.6249111 26.4199245 17.9384826 26.4199245"></polygon>
                            <g id="g97" transform="translate(19.212580, 6.680000)" fill-rule="nonzero">
                                <path d="M10.868248,0.967500032 C9.83749395,0.891008512 8.80698559,1.23487373 7.90011268,1.84749952 C5.78723574,0.347891328 2.87532246,0.800409984 1.33242938,2.92999936 C-0.0880946621,4.89069568 0.112339627,7.62467712 1.80226036,9.34749952 L6.08542373,13.7824998 C7.04208861,14.7634202 8.61147055,14.7634214 9.56813543,13.7824998 L13.8488131,9.35000064 L13.8537769,9.34500864 C15.7392305,7.44832512 15.7735481,4.34140416 13.9283484,2.4025088 C13.9228755,2.3967488 13.9155061,2.3897088 13.908455,2.3825024 L13.908455,2.3799424 C13.0675382,1.52557312 11.9810128,1.0500768 10.868248,0.967500032 Z M5.23525392,3.08999936 C5.92657333,3.08999936 6.61567557,3.35903872 7.14937917,3.9 L7.14937917,3.89744 C7.54688255,4.30889088 8.21272877,4.3131264 8.61355916,3.904992 C9.68562214,2.82018816 11.3824451,2.81863808 12.4492655,3.9 C13.4948575,4.99279616 13.4904792,6.73574784 12.4591931,7.83750016 L12.44672,7.85004416 L8.16355536,12.2500442 L8.16100983,12.2500442 C8.00307964,12.4135168 7.76583561,12.4146394 7.60665938,12.2526042 L3.3210103,7.85260416 L3.31846477,7.85004416 C2.27326739,6.75051264 2.27415578,4.99607552 3.3210103,3.89754496 C3.85436898,3.35827584 4.54489672,3.08999936 5.23513428,3.08999936 L5.23525392,3.08999936 Z" id="use11"></path>
                                <path d="M8.23658299,5.60262144 C8.17323731,5.59238144 7.77554811,5.4172608 7.35016474,5.71698944 C7.24680322,5.8498944 7.17611367,6.06770176 7.11532625,6.4098176 C7.10552593,6.5105152 7.07276488,6.60760192 7.05148419,6.70649472 C6.65439828,6.72796032 6.017813,7.04877952 5.88498817,7.18511488 C5.75510725,7.31842816 5.67368825,7.50084736 5.67368825,7.71011456 C5.67368825,7.91938176 5.75510725,8.09930112 5.88498817,8.2326144 C6.017813,8.3689472 6.22300999,8.47935488 6.61583594,8.56511488 L7.1154968,8.67511808 L7.1154968,9.1901184 C7.1154968,9.3993856 7.19691579,9.58180608 7.32679544,9.71511808 C7.45962027,9.85145344 7.63672981,9.93261824 7.83888615,9.93261824 C8.0410425,9.93261824 8.21566632,9.85145344 8.34849115,9.71511808 C8.47837207,9.58180736 8.58245652,9.38166656 8.65425339,8.97761792 L8.74871825,8.4501184 L9.28069597,8.4501184 C9.48285232,8.4501184 9.65996058,8.3689536 9.79278541,8.23261824 C9.92266633,8.09930496 10.0040853,7.9193856 10.0040853,7.7101184 C10.0040853,7.5008512 9.92266633,7.318432 9.79278541,7.18511872 C9.65991603,7.04878848 9.45471905,6.9383808 9.06189309,6.8526208 L8.55974652,6.7451264 L8.55974652,6.22762624 C8.55974652,6.01836032 8.47832752,5.83843712 8.34844788,5.7051264 C8.19187191,5.5444096 8.31258126,5.614912 8.23658427,5.602624 L8.23658299,5.60262144 Z" id="path76"></path>
                            </g>
                        </g>
                    </g>
                    <g id="Assistant-tag" transform="translate(188.000000, 7.000000)">
                        <rect id="Rectangle" stroke="#123C70" opacity="0.119999997" x="0.5" y="0.5" width="82" height="23" rx="6"></rect>
                        <path d="M15.92,16.048 C16.112,16.048 16.282,15.984 16.43,15.856 C16.578,15.728 16.652,15.572 16.652,15.388 C16.652,15.284 16.628,15.18 16.58,15.076 L16.58,15.076 L13.256,7.96 C13.184,7.8 13.074,7.678 12.926,7.594 C12.778,7.51 12.62,7.468 12.452,7.468 C12.284,7.468 12.126,7.51 11.978,7.594 C11.83,7.678 11.72,7.8 11.648,7.96 L11.648,7.96 L8.336,15.076 C8.288,15.18 8.264,15.284 8.264,15.388 C8.264,15.572 8.34,15.728 8.492,15.856 C8.644,15.984 8.812,16.048 8.996,16.048 C9.132,16.048 9.256,16.014 9.368,15.946 C9.48,15.878 9.568,15.772 9.632,15.628 L9.632,15.628 L10.352,14.02 L14.576,14.02 L15.296,15.628 C15.36,15.772 15.448,15.878 15.56,15.946 C15.672,16.014 15.792,16.048 15.92,16.048 Z M14.048,12.82 L10.88,12.82 L12.464,9.256 L14.048,12.82 Z M20.648,16.108 C21.296,16.108 21.87,16.002 22.37,15.79 C22.87,15.578 23.258,15.282 23.534,14.902 C23.81,14.522 23.948,14.084 23.948,13.588 C23.948,13.132 23.83,12.752 23.594,12.448 C23.358,12.144 23.018,11.894 22.574,11.698 C22.13,11.502 21.552,11.324 20.84,11.164 C20.168,11.012 19.692,10.848 19.412,10.672 C19.132,10.496 18.992,10.244 18.992,9.916 C18.992,9.524 19.15,9.218 19.466,8.998 C19.782,8.778 20.212,8.668 20.756,8.668 C21.204,8.668 21.582,8.726 21.89,8.842 C22.198,8.958 22.516,9.136 22.844,9.376 C22.956,9.44 23.046,9.484 23.114,9.508 C23.182,9.532 23.256,9.544 23.336,9.544 C23.472,9.544 23.59,9.482 23.69,9.358 C23.79,9.234 23.84,9.088 23.84,8.92 C23.84,8.792 23.818,8.686 23.774,8.602 C23.73,8.518 23.656,8.432 23.552,8.344 C22.832,7.736 21.9,7.432 20.756,7.432 C20.132,7.432 19.57,7.542 19.07,7.762 C18.57,7.982 18.18,8.288 17.9,8.68 C17.62,9.072 17.48,9.516 17.48,10.012 C17.48,10.492 17.592,10.888 17.816,11.2 C18.04,11.512 18.372,11.768 18.812,11.968 C19.252,12.168 19.824,12.344 20.528,12.496 C21.208,12.648 21.694,12.806 21.986,12.97 C22.278,13.134 22.424,13.368 22.424,13.672 C22.424,14.064 22.268,14.362 21.956,14.566 C21.644,14.77 21.196,14.872 20.612,14.872 C20.156,14.872 19.74,14.816 19.364,14.704 C18.988,14.592 18.628,14.412 18.284,14.164 C18.1,14.052 17.936,13.996 17.792,13.996 C17.656,13.996 17.538,14.058 17.438,14.182 C17.338,14.306 17.288,14.452 17.288,14.62 C17.288,14.868 17.38,15.06 17.564,15.196 C17.908,15.476 18.354,15.698 18.902,15.862 C19.45,16.026 20.032,16.108 20.648,16.108 Z M28.304,16.108 C28.952,16.108 29.526,16.002 30.026,15.79 C30.526,15.578 30.914,15.282 31.19,14.902 C31.466,14.522 31.604,14.084 31.604,13.588 C31.604,13.132 31.486,12.752 31.25,12.448 C31.014,12.144 30.674,11.894 30.23,11.698 C29.786,11.502 29.208,11.324 28.496,11.164 C27.824,11.012 27.348,10.848 27.068,10.672 C26.788,10.496 26.648,10.244 26.648,9.916 C26.648,9.524 26.806,9.218 27.122,8.998 C27.438,8.778 27.868,8.668 28.412,8.668 C28.86,8.668 29.238,8.726 29.546,8.842 C29.854,8.958 30.172,9.136 30.5,9.376 C30.612,9.44 30.702,9.484 30.77,9.508 C30.838,9.532 30.912,9.544 30.992,9.544 C31.128,9.544 31.246,9.482 31.346,9.358 C31.446,9.234 31.496,9.088 31.496,8.92 C31.496,8.792 31.474,8.686 31.43,8.602 C31.386,8.518 31.312,8.432 31.208,8.344 C30.488,7.736 29.556,7.432 28.412,7.432 C27.788,7.432 27.226,7.542 26.726,7.762 C26.226,7.982 25.836,8.288 25.556,8.68 C25.276,9.072 25.136,9.516 25.136,10.012 C25.136,10.492 25.248,10.888 25.472,11.2 C25.696,11.512 26.028,11.768 26.468,11.968 C26.908,12.168 27.48,12.344 28.184,12.496 C28.864,12.648 29.35,12.806 29.642,12.97 C29.934,13.134 30.08,13.368 30.08,13.672 C30.08,14.064 29.924,14.362 29.612,14.566 C29.3,14.77 28.852,14.872 28.268,14.872 C27.812,14.872 27.396,14.816 27.02,14.704 C26.644,14.592 26.284,14.412 25.94,14.164 C25.756,14.052 25.592,13.996 25.448,13.996 C25.312,13.996 25.194,14.058 25.094,14.182 C24.994,14.306 24.944,14.452 24.944,14.62 C24.944,14.868 25.036,15.06 25.22,15.196 C25.564,15.476 26.01,15.698 26.558,15.862 C27.106,16.026 27.688,16.108 28.304,16.108 Z M33.8,16.072 C34.04,16.072 34.23,16 34.37,15.856 C34.51,15.712 34.58,15.524 34.58,15.292 L34.58,15.292 L34.58,8.248 C34.58,8.016 34.51,7.83 34.37,7.69 C34.23,7.55 34.04,7.48 33.8,7.48 C33.568,7.48 33.382,7.55 33.242,7.69 C33.102,7.83 33.032,8.016 33.032,8.248 L33.032,8.248 L33.032,15.292 C33.032,15.524 33.102,15.712 33.242,15.856 C33.382,16 33.568,16.072 33.8,16.072 Z M39.332,16.108 C39.98,16.108 40.554,16.002 41.054,15.79 C41.554,15.578 41.942,15.282 42.218,14.902 C42.494,14.522 42.632,14.084 42.632,13.588 C42.632,13.132 42.514,12.752 42.278,12.448 C42.042,12.144 41.702,11.894 41.258,11.698 C40.814,11.502 40.236,11.324 39.524,11.164 C38.852,11.012 38.376,10.848 38.096,10.672 C37.816,10.496 37.676,10.244 37.676,9.916 C37.676,9.524 37.834,9.218 38.15,8.998 C38.466,8.778 38.896,8.668 39.44,8.668 C39.888,8.668 40.266,8.726 40.574,8.842 C40.882,8.958 41.2,9.136 41.528,9.376 C41.64,9.44 41.73,9.484 41.798,9.508 C41.866,9.532 41.94,9.544 42.02,9.544 C42.156,9.544 42.274,9.482 42.374,9.358 C42.474,9.234 42.524,9.088 42.524,8.92 C42.524,8.792 42.502,8.686 42.458,8.602 C42.414,8.518 42.34,8.432 42.236,8.344 C41.516,7.736 40.584,7.432 39.44,7.432 C38.816,7.432 38.254,7.542 37.754,7.762 C37.254,7.982 36.864,8.288 36.584,8.68 C36.304,9.072 36.164,9.516 36.164,10.012 C36.164,10.492 36.276,10.888 36.5,11.2 C36.724,11.512 37.056,11.768 37.496,11.968 C37.936,12.168 38.508,12.344 39.212,12.496 C39.892,12.648 40.378,12.806 40.67,12.97 C40.962,13.134 41.108,13.368 41.108,13.672 C41.108,14.064 40.952,14.362 40.64,14.566 C40.328,14.77 39.88,14.872 39.296,14.872 C38.84,14.872 38.424,14.816 38.048,14.704 C37.672,14.592 37.312,14.412 36.968,14.164 C36.784,14.052 36.62,13.996 36.476,13.996 C36.34,13.996 36.222,14.058 36.122,14.182 C36.022,14.306 35.972,14.452 35.972,14.62 C35.972,14.868 36.064,15.06 36.248,15.196 C36.592,15.476 37.038,15.698 37.586,15.862 C38.134,16.026 38.716,16.108 39.332,16.108 Z M46.652,16.06 C46.884,16.06 47.07,15.99 47.21,15.85 C47.35,15.71 47.42,15.524 47.42,15.292 L47.42,15.292 L47.42,8.812 L49.604,8.812 C50.084,8.812 50.324,8.6 50.324,8.176 C50.324,7.752 50.084,7.54 49.604,7.54 L49.604,7.54 L43.688,7.54 C43.208,7.54 42.968,7.752 42.968,8.176 C42.968,8.6 43.208,8.812 43.688,8.812 L43.688,8.812 L45.872,8.812 L45.872,15.292 C45.872,15.524 45.942,15.71 46.082,15.85 C46.222,15.99 46.412,16.06 46.652,16.06 Z M57.2,16.048 C57.392,16.048 57.562,15.984 57.71,15.856 C57.858,15.728 57.932,15.572 57.932,15.388 C57.932,15.284 57.908,15.18 57.86,15.076 L57.86,15.076 L54.536,7.96 C54.464,7.8 54.354,7.678 54.206,7.594 C54.058,7.51 53.9,7.468 53.732,7.468 C53.564,7.468 53.406,7.51 53.258,7.594 C53.11,7.678 53,7.8 52.928,7.96 L52.928,7.96 L49.616,15.076 C49.568,15.18 49.544,15.284 49.544,15.388 C49.544,15.572 49.62,15.728 49.772,15.856 C49.924,15.984 50.092,16.048 50.276,16.048 C50.412,16.048 50.536,16.014 50.648,15.946 C50.76,15.878 50.848,15.772 50.912,15.628 L50.912,15.628 L51.632,14.02 L55.856,14.02 L56.576,15.628 C56.64,15.772 56.728,15.878 56.84,15.946 C56.952,16.014 57.072,16.048 57.2,16.048 Z M55.328,12.82 L52.16,12.82 L53.744,9.256 L55.328,12.82 Z M65.504,16.072 C65.72,16.072 65.896,16 66.032,15.856 C66.168,15.712 66.236,15.524 66.236,15.292 L66.236,15.292 L66.236,8.248 C66.236,8.016 66.17,7.83 66.038,7.69 C65.906,7.55 65.728,7.48 65.504,7.48 C65.288,7.48 65.114,7.55 64.982,7.69 C64.85,7.83 64.784,8.016 64.784,8.248 L64.784,8.248 L64.784,13.432 L60.416,7.756 C60.28,7.572 60.088,7.48 59.84,7.48 C59.616,7.48 59.436,7.55 59.3,7.69 C59.164,7.83 59.096,8.016 59.096,8.248 L59.096,8.248 L59.096,15.292 C59.096,15.524 59.16,15.712 59.288,15.856 C59.416,16 59.592,16.072 59.816,16.072 C60.04,16.072 60.216,16 60.344,15.856 C60.472,15.712 60.536,15.524 60.536,15.292 L60.536,15.292 L60.536,10.096 L64.916,15.796 C65.052,15.98 65.248,16.072 65.504,16.072 Z M70.832,16.06 C71.064,16.06 71.25,15.99 71.39,15.85 C71.53,15.71 71.6,15.524 71.6,15.292 L71.6,15.292 L71.6,8.812 L73.784,8.812 C74.264,8.812 74.504,8.6 74.504,8.176 C74.504,7.752 74.264,7.54 73.784,7.54 L73.784,7.54 L67.868,7.54 C67.388,7.54 67.148,7.752 67.148,8.176 C67.148,8.6 67.388,8.812 67.868,8.812 L67.868,8.812 L70.052,8.812 L70.052,15.292 C70.052,15.524 70.122,15.71 70.262,15.85 C70.402,15.99 70.592,16.06 70.832,16.06 Z" id="ASSISTANT" fill="#123C70" fill-rule="nonzero"></path>
                    </g>
                </g>
            </g>
        </g>
    </g>
</svg>